# xmcd
#
# Track frame offsets: 
#        150
#        19135
#        36591
#        58042
#        83410
#        104995
#        126804
#        142460
#        166455
#        189738
#        212175
#        235050
#        259552
#
# Disc length: 3695 seconds
#
# Revision: 0
# Processed by: cddbd v1.5.2PL0 Copyright (c) Steve Scherf et al.
# Submitted via: ExactAudioCopy v0.99pb5
#
DISCID=c50e6d0d
DTITLE=中孝介 - 花間道
DYEAR=2007
DGENRE=Pop
TTITLE0=童話
TTITLE1=夜想曲
TTITLE2=花
TTITLE3=無止盡的愛
TTITLE4=浪之物語
TTITLE5=Ave Maria
TTITLE6=Goin'on
TTITLE7=食指的旋律
TTITLE8=My Life
TTITLE9=戀愛之指標
TTITLE10=星空之下
TTITLE11=家路
TTITLE12=心之陽
EXTD=
EXTT0=
EXTT1=
EXTT2=
EXTT3=
EXTT4=
EXTT5=
EXTT6=
EXTT7=
EXTT8=
EXTT9=
EXTT10=
EXTT11=
EXTT12=
PLAYORDER=
